<svg id="Layer_1" data-name="Layer 1" xmlns="http://www.w3.org/2000/svg" viewBox="0 0 512 512"><defs><style>.cls-1{fill:#707070;}</style></defs><title>planets_style_5</title><path class="cls-1" d="M337.35,301a162.94,162.94,0,0,0-58.24-93.06l2,1.35c-4.46-3.29-8.62-6.93-13.35-9.95-31.52-21.13-70.75-29.58-108.26-25.24-4.93.83-10.13,1.39-14.77,2.43-9.46,2.34-15.55,3.86-18.8,5.35-3.33,1.26-4.09,1.63-3,1.42,2-.31-2.21,1.11-8.39,3.92l-10.28,5.1c-3.67,1.79-7.07,4.25-10.31,6.16a163.39,163.39,0,0,0-44.25,41.87A159.54,159.54,0,0,0,23.58,297.5c-3.65,16.44-5.38,34-3.64,51.18a166.55,166.55,0,0,0,12.35,48.63c2.9,5.5,5.89,13.1,10,19.12a156.1,156.1,0,0,0,27.35,34.31c10.38,10.4,22.89,18.65,36.45,25.86,3.62,1.66,12.11,6.17,14.33,6.77,4,1.7,4.78,2.26,7.2,3.44a64.63,64.63,0,0,0,9.29,2.84c3.43.83,7.1,2,11.2,2.8a58.09,58.09,0,0,1-6.63-1.31c16.9,3.79,31.77,5,46.2,4,14.38-.5,28.39-3.2,43.44-8.07l2.41-1.28,7-2.56c2.39-.9,4.7-2.19,7.24-3.36l8.06-3.89,8.88-5.38-6.53,4.11c.55,0,4-1.73.44.68-1.35,1.08-5.05,3-9.47,5.1l-6.93,3.41-7.09,2.65c-9.42,3.75-13.78,4.29-16.5,5.41a68.94,68.94,0,0,1-9.31,2.42l-14.18,2.36c-20.72,1.46-13.93,1.67-15.22,2.24-.46.2.68.33,1.25.55,1.3-.17,7.1,0,17.46-.93-11.21,1.14-19.07,1.78-28.93,1.14l1.7-.24c-4.46-.18-11.18-.58-12.94-1l-10.55-1.33c-3.56-.36-7-1.47-10.34-2.14-3.34-.85-6.68-1.34-9.65-2.38l-8.3-2.72c-13.47-4.77,14.86,8.64,39.06,11.05,3.74.76,7.57.64,11.38.93,3.81.09,7.64.64,11.47.34,7.66-.39,15.37-.51,23-2,7.69-.85,15.11-3,22.59-4.94,3.73-1,7.28-2.55,10.93-3.8a78.8,78.8,0,0,0,10.67-4.41l8.57-4.13c2.89-1.33,5.5-3.21,8.28-4.8s5.59-3.24,8.25-5.13l8-5.89a168.08,168.08,0,0,1-54.51,28.46l.08.13c3.33-.85,6.49-2.24,9.74-3.33,3.19-1.26,6.54-2.13,9.57-3.73a227.85,227.85,0,0,0,28-15.3c3.16-2.24,7.4-5.15,12.37-9.07,4.6-4.35,10.64-9,16.25-15.71l5.51-6.11c1.77-2.22,3.46-4.61,5.23-7s3.62-4.74,5.25-7.23l4.62-7.63c3.25-4.92,5.58-10.12,7.87-14.74a113.91,113.91,0,0,0,5.48-12.38c2.15-5.23.84-.67,1.1-.57,5.74-16.37,10.28-33.28,10.44-58.18.11,5.08.22,9.82.32,14.52s-.56,9.34-.83,14.25c-.07.26,1.07-6.07,1.88-11.88l-2.5,18.25c-.83,3.75-1.21,5.78-1.53,7.61-.74,3.65-.62,6.7-5.8,20.58,1.95-5.42,4-9.83,5.11-14.24L349,370.72c-2,9.23-4.74,20.15-2.88,15,1.83-4-3.64,13.23-5.65,18.91-.89,2.25,1.43-2.1,1-.83a64.24,64.24,0,0,1-3.85,9.48c-3.12,7.18-6.36,12-9.72,18-1.62,3.05-4,5.95-6.57,9.5a98.87,98.87,0,0,1-10,12c-1.5,1.51-5.4,6.06-7.93,8.48A175.5,175.5,0,0,1,198.21,511c-25.2,2.87-54.7-.57-80.17-10C87.71,490.2,61.15,470.72,40.8,445.9,29,431.53,19.94,415,13.24,397.63c-1.48-4.42-3.48-8.68-4.49-13.24L5.29,370.84c-1.44-9.2-3.17-18.4-3.27-27.73-.67-7.16-.08-15.49.17-21.31a175.39,175.39,0,0,1,13.35-56.73c7.82-18.27,18.9-33.75,28.19-44.62,7.79-9.15,23.93-24.4,38.76-33.77l-1.59.75c4.92-3.18,7.26-5.37,15.35-9.89,16.17-8.93,35.16-15,54-17.81,13.34-2.52,35.65-3.21,56.16.21l-5.71-.06c29,4.28,36.69,9.35,37.65,9.66.92.67-5.29-1.17-6.51-1.23a168.84,168.84,0,0,1,54.76,28.83C311.27,216,331,243.71,340.47,268.91l4.8,13.22c1.61,5.52,3.07,11.57,4.26,16.24,1,4.74,1.4,9.17,2,13.44a89.44,89.44,0,0,1,1,12.84l-.6-7.39-1.41-7.95a101.37,101.37,0,0,1,1.17,18.58c-.09,2.52-.42.6-1.13-7.86-.33-3.87-.32.55-.55-.27l-1.95-10a173.16,173.16,0,0,0-9-33.87l-2.48-6.57c-.87-2.18-2.05-4.21-3-6.24-2.12-4-3.91-7.83-5.82-10.7-3.86-5.72-6.14-8.71-4.68-5.82,3.82,8.79-8.32-16.15-35.44-39.4a167.27,167.27,0,0,0-50.81-29.57c-4-1.43-8.27-3-11-3.37l-11.61-2.67c-5.14-1-11.41-1.64-18-2.63-6.63-.16-13.6-.87-20.23-.57l-9.62.52-4.46.24-4.1.61-11.35,1.6c-13.75,3-13.82,2.31-32.88,10.08,5.17-1.78,10.42-3.37,15.4-5,5.1-1.23,10-2.18,14.49-3.12,3.38-.72,2.68-.21,3.85-.25-6.41,1.42-12.84,3-19.12,5-6.12,2.41-12.52,4.15-18.31,7.27-4,2.06-8.23,3.51-11.77,5.79C50.5,217.72,17.66,269.18,14.83,323.74l-.27,6.62a3.14,3.14,0,0,0,.14-.65c1.07-43.41,20.53-85.86,52.47-115.23l7.39-6.7,8-6c5.16-4.26,11.18-7.29,16.8-10.89,5.81-3.13,10.8-5.29,14.72-7.22,4-1.67,7.22-2.63,9.46-3.43,4.52-1.51,5.55-1.64,4.08-.7,6.88-2.41,13.25-3.78,19.14-5.35,6-.89,11.68-2.09,17.47-2.63,7.81-.48,16-1.17,24.22-.42a165.4,165.4,0,0,1,52.86,11.56A177,177,0,0,1,285,208.57c8.51,7.38,19.66,18,27.25,29.17A164.86,164.86,0,0,1,339,294.21a139.29,139.29,0,0,1,4.8,34c.19,6.52,0,8.13-.47,5-.74-4.56-1.38-7-2.16-10.77C339.77,306.88,336.93,297,337.35,301ZM224.83,502.15l5.94-1.3,6.24-2.12L247,495l9.73-4.68,4.88-2.37c1.58-.87,3.1-1.86,4.65-2.78l9.23-5.64c6.9-5.1,13.92-9.91,20.05-15.91l5.7-5.15c1.88-1.74,3.54-3.73,5.31-5.58l1.17-1.59c-20.88,23.38-48.57,40.27-78.42,49.49ZM17.47,366.29c.33,2.95,1.47,6.62,2.47,11,.56,2.17,1.09,4.51,1.8,6.94l2.74,7.48c1,2.59,1.88,5.33,3.07,8l4,8.14C34,413.51,37.7,418.73,41,424.12c-2.47-4.11-4.86-7.84-7-11.53l-5.38-11.13-.22-.56,3,6.12a86.39,86.39,0,0,0,6,10.9c-3.54-5.43-5.32-10.25-7.14-13.85a71.75,71.75,0,0,1-3.7-8.48c-1.81-5.16-4-9.85-5.29-14.73S18.48,371.27,17.47,366.29ZM82.05,450c-6.11-5.78-10.18-9.66-13.47-13.91a150.2,150.2,0,0,1-30.91-49.49l-2.79-7.15c-1.77-6.11-1.61-1.38,1.9,8.34,3,9.88,10,24.54,19.88,37.69,21.51,29.06,53.76,50.65,89,58.21,7.35,1.69,13.17,2.16,17.42,2.9,4.32.22,7.18.22,8.82.16,7.63,0,14.58-1.58,20.16-2.45.92-.16-4.55-.1-9.26.06-23.58.68-50.81-5.44-73.53-17.27-17-9.84-19-11.61-11.34-6,2.36,1.57.28.52.22.67a81.93,81.93,0,0,1-9.1-6.31C86.17,453.2,83.38,451.42,82.05,450Zm36.21-261.05a178.57,178.57,0,0,0-40.59,24.77C60.77,228,51.8,240.12,42.83,255.59c-.85,1.45-1.76,2.87-2.56,4.34l-2.17,4.59-4.35,9.26-3.5,9.75c-.56,1.64-1.23,3.26-1.72,4.94l-1.28,5.11c-4,13.55-5.17,28.19-5.28,43.25L23.11,347c.18,1.3.27-.25.23-3.06a111.37,111.37,0,0,1,.35-15.84c.48-5.32.68-9.81,1.18-10.76.81-2,1.5-8.81,3.43-16.89,1.11-4,2.09-8.43,3.41-12.7l4.47-12.07c2.77-6.13,5.19-10.84,6.95-14.74,2.17-3.68,3.76-6.52,5-8.88l2.25-4.18,3.25-4.73c2.41-3.35,4.85-7.41,8.31-11.1,1.39-1.52,4.41-5.19,7.75-8.53l8.44-7.64c20.16-16.75,44.55-28,65.26-32.77-4.83,1-9.6,1.48-13.42,2.66ZM319.17,393.72c1.69-4.88,4.38-11.68,5.31-15.54,2.82-12,3.18-15.42,2-12.12s-3.69,13.37-9.64,27.4c-13.13,29.6-37.15,56.79-66.67,72.73L238.09,472c-4.16,1.73-8.47,3.14-12.67,4.75a22.09,22.09,0,0,1-2.79,1.12c13.48-4.15,26.7-9.55,38.74-17.19,11.86-7.78,23.21-16.67,32.61-27.5a32.49,32.49,0,0,0,3.29-4.11,32.13,32.13,0,0,1-3,4.33A161.27,161.27,0,0,0,319.17,393.72ZM186.53,237a7.88,7.88,0,0,0-4.65-5.47,14.62,14.62,0,0,0-7.74-.44l.34-.14a15.57,15.57,0,0,0-2.5.29c-5.59,1.58-11.71,3.27-17.6,4.42l-2.35.48c-3.08.52-3.94.71-3.54,1,.73.49-2.78,1.24-4.42,1.74l-3.63,1.07a7.84,7.84,0,0,0-3.39,1.58,5.26,5.26,0,0,0-1.76,3.36,6.46,6.46,0,0,0,1,3.74l3,5.58c1,1.83,2.81,4.35,4.16,6.3.56.79,1.2,1.87,1.8,2.83a43.53,43.53,0,0,0,3.41,4.95,13,13,0,0,0,3.76,3.58,10.63,10.63,0,0,0,1.73.76c.49.25.6.52.92.78a10.14,10.14,0,0,0,2.54-.83l-.75.64a14.25,14.25,0,0,0,1.38-.75,29.09,29.09,0,0,0,3.6-2.72c1.27-1.07,3.17-2.73,4.92-4.39l0-.56c1.08-1.1,2.15-2.23,3.73-4-.62.88-.89,1.23-.71,1,.29.16.91-.11.61.53a21.5,21.5,0,0,1-2.56,3.21c-1.08,1.17-1.58,1.63-1.71,2.15a22.2,22.2,0,0,1-2.34,2.95c-2.1,2.39-1.12,2.21-1,2.78,0,.21.27.25.47.4.18-.13,1-.66,2.41-1.78a36.44,36.44,0,0,1-3.74,3.48l.1-.47-1.87,1.23-.87.68a16,16,0,0,1-5.54,2.71c-2.44.42,2.12,1.6,6.07-.5l1.15-.58a34.81,34.81,0,0,0,7.07-5.37c1.8-1.71,3.51-3.46,5.19-5.27l4.15-4.55c-2,2.55-4.19,5-6.47,7.45l.11.1c.8-.76,1.59-1.53,2.33-2.33A31.26,31.26,0,0,1,177.1,265a26.41,26.41,0,0,0,4-4.47c2-2.63,4.52-6.42,6.36-8,.7-.58.54.22.76.38l2.42-3.34,1.39-1.91c.23-.31.72-1.12,1.07-1.71a11.84,11.84,0,0,0,1.13-2.31,25.87,25.87,0,0,1-1,4.12c-.31,1.08-.35,1.65-.55,2.53l1.21-1.43c-3.13,4.63-.69,2.84-3.12,6.7l2.8-3.3c-.58,1.28-1.41,2.78-.56,2.38.67-.32-.56,2.15-.76,3.14-.08.4.53-.08.56.19a2.08,2.08,0,0,1-.42,1.62c-1.35,2-1.45,3.3-4.23,6-.24.23-.82,1-1.16,1.41a83.84,83.84,0,0,1-6.11,7.33c-1.1,1.17-2.23,2.32-3.41,3.45l-1.74,1.62-2.31,2a42.52,42.52,0,0,1-11.2,7.22,22.23,22.23,0,0,1-8.6,1.84,17.47,17.47,0,0,1-11.58-4.19,33.87,33.87,0,0,1-5-4.34l-4.28-5.12c-2-2.65-3.39-5.22-5.08-7.86l-2.42-3.95a14.9,14.9,0,0,1-1.25-2.26l-1.46-3.46-2.31-5.27c-1-2.22-2.2-4.64-3.19-7.11a19.27,19.27,0,0,1,.24-7.14A18.84,18.84,0,0,1,124.44,229a27.42,27.42,0,0,1,5-2.9,31.51,31.51,0,0,1,7.31-2.09l-.56-.07a26.54,26.54,0,0,1,4.86-1.72l3.07-.7,2-.41c1.36-.24,2.72-.43,4.07-.53,1.91-.15,4.92-.75,7.65-1.27l-.56,1c7.66-1.78,4.75-.23,4.66.58l4.32-1.39a38.88,38.88,0,0,1,5.67-1.36,29.39,29.39,0,0,1,11.08.19,19.6,19.6,0,0,1,11.42,7.26,23.91,23.91,0,0,1,4,7.89,20.14,20.14,0,0,1,.49,7.87,17.84,17.84,0,0,0-.62-4.79,13.93,13.93,0,0,1-.52,5.81c-.44.94-.31,0-.52-2.66-.15-1.13-.35.15-.53-.09a9.55,9.55,0,0,1-.9-2.65,26,26,0,0,0-3.35-7.65,11.58,11.58,0,0,0-5.46-4.32c-1.68-.58-2.63-.47-2,0,.83.83-.27.55-2.38.17a29.69,29.69,0,0,0-8.34-.12,52.69,52.69,0,0,0-9.45,2.3,7.18,7.18,0,0,0-1.58.74c-1.3.81-6.78,2.54-10,3.09a14,14,0,0,1-1.75.23c-2.22,0-2.18,0-5.23,1l5,.37c.56.06.48.29.7.44l-6.07,1.2c-.72.14-1.52.14-2.22.29-2.29.48-4.59,1-6.76,1.6a9.36,9.36,0,0,0-5.68,3.38,7.45,7.45,0,0,0-1.23,6.45,58.66,58.66,0,0,0,2.89,6.17l.55,1s.08-.08.05-.12c-1.36-3.29-3.83-6.3-3.38-9.95s4-6.15,7.44-6.6q3.16-.81,6.45-1.49c4.27-.87,5.32-.88,5-.06l5.74-1.52,3.7-1c5.9-1.21,10.59-3.55,16-4.74a17.25,17.25,0,0,1,6.71.11A11.1,11.1,0,0,1,189.3,235a9.9,9.9,0,0,1,.7,6.06c-.38,1.21-.75,1.32-.91.73a4.38,4.38,0,0,0-1.32-1.91C187.73,237.63,186.79,236.28,186.53,237ZM174.6,275.36a9.91,9.91,0,0,0,1.71-1.22c1.63-1.63,3.19-3.42,4.67-5.18l2.57-3.17,1.6-1.83,0-.37A140.34,140.34,0,0,1,175,274.71Zm-38.36-16.8a47.54,47.54,0,0,0,5.36,8.4l-2.2-3.46v-.11l1.74,2.51c-1-1.79-1.55-2.84-2-3.42Zm18.35,2.78c0-.29.24-.4.41-.48.2.3-.48-.4-.89-.82l-1.28-1.79-2.55-3.51a5.9,5.9,0,0,0-.75-.89c-1.63-1.27.09,3.19,2.68,7.43l.93,1.16.17.24a6.7,6.7,0,0,0,.67.77,1.49,1.49,0,0,0,1.87.43,2,2,0,0,0,.31-.15.71.71,0,0,0,.43-.71,4.72,4.72,0,0,0-.78-2.15,3.56,3.56,0,0,0-.29-.29l-.18-.2s0,.14-.1.13-.17.13-.28.59a2.91,2.91,0,0,1-.19.48C154.73,261.51,154.58,261.47,154.59,261.35ZM148.2,241l-2.73.61c-.78.18-1.57.35-2.34.47-2.22.27-3.58,1-4.28,2.6-1.29,2.57,1.17,5,2.39,7.5a5.29,5.29,0,0,0,1,.62c.16.06.25-.13.24-.37,0-.78-.28-1.94,0-2.09.68-.38-.51-1.65-.35-2.6a3.33,3.33,0,0,0,.1-1.74,1.73,1.73,0,0,1,.42-1.68,4,4,0,0,1,1.61-.51,12.28,12.28,0,0,0,3-.37l5.5-1.21-2.43-.56Zm24.94,2.46a19.25,19.25,0,0,0,1.47-2.3c2-3.82,0-2.74-3.33,1.07-3.57,4-6.78,8.55-10.27,12.27l-2.78,3-.19.44a108.53,108.53,0,0,0,10-8.73l.44-.72-.17.94C170.06,247.32,171.6,245.43,173.14,243.42ZM103.75,406.16a65.73,65.73,0,0,1,11.14,31.18,66.29,66.29,0,0,1-.52,16.5,65.17,65.17,0,0,1-4.81,16.33l.53-1.48a79.57,79.57,0,0,1-5,9.31l-1.19,1.91-.62.95-.31.47c-.12.07-.32-.14-.47-.2l-3.93-2.21c-2.6-1.52-5.29-2.83-7.8-4.53l-7.16-4.78c-2.26-1.58-4.39-3.33-6.59-5a160.35,160.35,0,0,1-23.79-22.88A82.65,82.65,0,0,1,47.74,435c-3.49-4.49-5.41-7.59-6.58-9.3s-1.52-2.08-1.31-1.46c.7,2.34-6.32-8.33-10.19-16.35-11-20.75-17.21-46-17.79-71.22-.64-20.19,3.37-41.64,9.79-59.9,1.26-3.52,3.13-8,4.93-12a156.42,156.42,0,0,1,13.26-23.24l2.38-3.35,1.19-1.68c.5-.41,1.3-.36,1.93-.55a62.49,62.49,0,0,1,8-1.16,47.16,47.16,0,0,1,7.08,0,49.18,49.18,0,0,1,7.15.72,42.69,42.69,0,0,1,9.54,2.79,17.74,17.74,0,0,1,4.27,2.56,54,54,0,0,1,11.06,6.85c-1-.62-1.73-1.19-3.47-2.25a55.15,55.15,0,0,1,25.19,46.81c.18.6.22,1,.35,1.65a56,56,0,0,1-4.44,20.72,34.74,34.74,0,0,0,1.52-4.47c-.4.17-1.4,2.29-.78-.22.57-2,2.43-9.66,2.39-15.3,0-6-.35-8.58-.91-10.24A69.31,69.31,0,0,0,108,271c-2.7-5.43-4.2-6.88-4.68-7.29s-.34.44-.75.26-.11.52-.16.92a45,45,0,0,1,4.1,8.72A51.85,51.85,0,0,0,98.39,260l.81.54a49.86,49.86,0,0,0-4.71-5.37,50.77,50.77,0,0,0-18.68-10.63c-7.41-1.87,8.68,3,17.17,12.54a52.34,52.34,0,0,1,12.25,20.11A51,51,0,0,1,107,300.81,47.88,47.88,0,0,1,99.8,319.3,49.23,49.23,0,0,0,107.15,289l-.14,0a49.72,49.72,0,0,1-.38,10.47,40.79,40.79,0,0,1-5.12,15.3,57.94,57.94,0,0,1-11.89,14.79c-1.05.91-2,1.61-3.34,2.69A39.69,39.69,0,0,0,82.19,336a43.2,43.2,0,0,0-6.57,9.11,47.29,47.29,0,0,0-5.26,18.27c-.22,3.59-.58.59-.85.57,0,11,3.41,23.06,15.65,33.53A43.37,43.37,0,0,1,72,384.12,46,46,0,0,0,76,391.05a50.42,50.42,0,0,1-6.11-10.7c-1-2.38-1.49-3.7-1.94-4.89a26.49,26.49,0,0,1-1.27-4.29A35.44,35.44,0,0,1,66,361.08a45.36,45.36,0,0,0,2.34,19.45c-2.66-6-3.31-13.92-3.39-10,0,1.52-.59-.82-.92-4.13a55.84,55.84,0,0,1,0-9.72c.1-1.74-.65,1.7-.69.74a19.45,19.45,0,0,1,1-7.33,53.19,53.19,0,0,1,6-13.53,45.56,45.56,0,0,1,5.21-6.6,51.24,51.24,0,0,1,3.81-3.56c.39-.32,1.25-1,1.36-1.08l.22-.13.67-.52c.69-.46,1-.69,1.52-1.09a26.24,26.24,0,0,0,3.35-3.07,41.23,41.23,0,0,0,8.38-43.18A39.81,39.81,0,0,0,72.85,255.1a41.78,41.78,0,0,0-18.5-2.73c-.73.08-.43.1-.59.26l-2.52,4-2.93,5a150,150,0,0,0-17.39,50.65c-.54,3.42-.93,7.43-1.13,10.23-1.23,17.42,1.43,39.86,4.93,53.28.78,2.79,1.93,6.76,3.38,11,1.67,4.14,3.25,8.68,5.18,12.47l-.2-.84c1.52,2.43,2.29,3.72,4.57,7.55A230.34,230.34,0,0,0,62.73,429a143.83,143.83,0,0,0,18.76,19.75l-2.6-1.22c10.74,9.42,14.43,11.66,14.65,12.27s-2.62-.89-3.32-.93c6.13,4,5.25,3.44,6.68,4.19l.75.4c.23.08.34-.41.49-.59.29-.5.54-1,.77-1.51a12.16,12.16,0,0,0,.54-1.41c.56-1.64,1-3.31,1.39-5a54.76,54.76,0,0,0,1.3-10.27,59.79,59.79,0,0,0-2.6-19.23,52.33,52.33,0,0,0-6.13-12.29,58.81,58.81,0,0,0-7.4-9.29,54.19,54.19,0,0,1,5.11,4.84c-2.5-3.37-4.8-5.61-5.48-6.58s.13-.59,3.16,2c1.35,1.24.09-.42.48-.26s1.56.85,3.76,3.19a48.71,48.71,0,0,1,9,14.42c3.7,8.24,5.34,19,5.55,15.7.1-2.4.85-.24,1.27,4.94a50.1,50.1,0,0,1-.29,9.75,52.41,52.41,0,0,1-1.1,6,50.81,50.81,0,0,1-1.81,6,47.17,47.17,0,0,1-2.41,5.39c-.47.87-.95,1.73-1.47,2.57l-.79,1.25c-.15.14-.23.56-.44.47l-.64-.37-5.13-2.94c-.87-.47-1.68-1-2.5-1.57l-2.82-1.87-5.3-3.35a117.46,117.46,0,0,1-13.08-10,135,135,0,0,1-14.83-15.12,47.78,47.78,0,0,1-3.87-5c-4.35-6.44-4.27-6.3-10.73-15.59,2.83,5.29,5.77,10.67,8.61,14.9a4,4,0,0,1,.85,2.05A152.69,152.69,0,0,1,38.7,416.31l-3.5-6.49a163.63,163.63,0,0,1-18-88.84l.31-3.72a1.06,1.06,0,0,0-.14.36A165.28,165.28,0,0,0,25.87,390l4.22,10.47,5,10.17c3.66,6.51,6,10.67,7.51,12.93s1.5,2.95.66,2.35a152.44,152.44,0,0,0,13.35,16.72c2.88,3.41,6.34,6.54,9.61,9.87,7.9,7.27,15.93,13.83,24.23,18.85a64.72,64.72,0,0,0,5.94,3.54l3,1.64,1.46.81.73.4c.26.2.49.29.61-.09a59.89,59.89,0,0,0,5.88-12,66.1,66.1,0,0,0,4-21.58,62.66,62.66,0,0,0-9.07-33.15,72.29,72.29,0,0,0-12-14.72c-2.65-2.45-3.21-3.22-1.65-2.36l5.69,3C101.42,403.25,104.55,408.45,103.75,406.16Zm-2.46-118.63c0,1.83-.13,3.42-.08,5.53a44.15,44.15,0,0,1-4.1,18.08,39.59,39.59,0,0,1-10.63,14.12L86,326a43.58,43.58,0,0,0,15.63-36.39A15.29,15.29,0,0,0,101.29,287.53Zm-80.44,9.65c1.77-6.43,5.78-20.38,11.81-33.35-2.39,4.86-4.11,9.12-5.75,13.4l-.17.3c.79-2.07,1.48-4.18,4-10.11a130.87,130.87,0,0,0-5.39,13A148.89,148.89,0,0,0,20.85,297.18ZM38.91,228.1c-3.3,3.26-5.62,7.12-7.8,9.78l-3.34,4.73a176.61,176.61,0,0,0-16.06,36c-.67,1.92-1.2,4.13-1.4,4.94-1.55,8.42,4.09-11.69,14.4-30.6,1.35-2.64,2.87-5.18,4.36-7.75.74-1.29,1.57-2.52,2.35-3.78s1.36-2.26,3.07-4.57l4.29-6c.5-1.33,2-1.12,3.13-1.48l3.59-.74a65.7,65.7,0,0,1,7-1c1.67-.13,3.36-.2,5.05-.2a70.41,70.41,0,0,1,19.73,3.1A67.33,67.33,0,0,1,95,239.48a88.35,88.35,0,0,1,14.26,13.21,75.75,75.75,0,0,1,9.73,12,28.13,28.13,0,0,0-3-6.57A65,65,0,0,0,96.4,236.59a67.57,67.57,0,0,0-28.28-11.17,57.4,57.4,0,0,0-13.57-.65c-1.51.21-.14.16,3.56.39,2.19.21.39.32.41.48a40.57,40.57,0,0,0-4.21.05c-1.46.09-2.71.17-5.17.48C44.85,226.74,41.17,227.69,38.91,228.1ZM34.6,423c-4.43-7.56-9.89-17.3-13-26.13-4.73-12.68-7.33-21.35-9.38-32.18a171.09,171.09,0,0,1-1.78-52.09l.32-6.37c0-.82-.32.09-.7,1.8-1.23,5.31-2.41,15.32-2.73,16.57-1.07,2.54-1.07,17.42,0,27.48a84.07,84.07,0,0,0,2.82,16.63c.94,3.41,2.64,8.66,4.57,14.69.91,2.43,3.76,11.29,4.8,13.54,5.46,15.53,14.3,29.72,22.32,40.37a72.64,72.64,0,0,1-4.11-7.53Zm53-61.82a20.79,20.79,0,0,0,.16,6.84c1.16,5,2.51,5.94,2.24,4.55a32.16,32.16,0,0,1-.15-11.34,22.89,22.89,0,0,1,3.54-8.66,22.18,22.18,0,0,1,3.07-3.67c.29-.28.55-.57.87-.83l.35-.31s-.06,0,.5-.4,2.38-1.79,3.53-2.79a68.4,68.4,0,0,0,21.46-33,65.81,65.81,0,0,0,2.6-21l-.29-2.35A66.88,66.88,0,0,1,98,345.06l-1.27,1c-.32.24-.13.14-.22.22l-.34.33c.23-.28.35-.46.3-.53s.5-.46.78-.74.07-.2.52-.58A24.32,24.32,0,0,0,87.6,361.17ZM292.91,215a164.12,164.12,0,0,1,44.7,72.33l-.6-1.73c1.09,4.12,2.29,8.16,3.1,12.39a171.77,171.77,0,0,1,4,43.16,164.91,164.91,0,0,1-2.25,21.61c-.29,1.82-.64,3.5-1,5.4s-.84,3.91-1.33,5.84q-1.44,5.81-3.25,11.41l-2,6-.53,1.49c-.18.32-.33,1.46-.55.75a12.43,12.43,0,0,0-1.29-1.86,7.85,7.85,0,0,0-2.55-2.2c-4.7-6.73-8-9.48-10-10.5s-2.23-1-1.76-.65c1.1,1-1.67-.66-6.33-1.67A29.52,29.52,0,0,0,295.2,378a28.11,28.11,0,0,0-17.42,20.18l-.61.11.53.18h0v.1l0,.12-.05.33-.12.7-.06.36a46.85,46.85,0,0,1-49.82,36.81,47.2,47.2,0,0,1-35.55-21.44,48,48,0,0,1-7.23-20c-.21-1.75-.24-3.52-.36-5.27l0-4.84q0-4.81,0-9.5c.06-4.83.29-11.13.62-16.76.8-13.15,2-25.84,4.73-39l-.1.87,0-.29.1-.89a21.89,21.89,0,0,1,10.28-14,21.38,21.38,0,0,1,8.59-2.81,19.33,19.33,0,0,1,4.52.07,29.32,29.32,0,0,1,4.06.58c3,.56,10.28,2.13,12,2.58a58.37,58.37,0,0,1,5.85,1.91l16,3.29-5.15-.79,9.48,1.89a46,46,0,0,0,8.34,1.57,14.92,14.92,0,0,0,14.94-19A15,15,0,0,0,268.88,285a15.81,15.81,0,0,0-1.78,0,28.05,28.05,0,0,0-5.2-.25h-6.11l-14.78,0,5.89-.12c-.35-.32-3.31-.61,0-.81,2.5-.1,12.82-.4,19.58-.17a16.12,16.12,0,0,1,7.27,2.73,29.22,29.22,0,0,1,3.23,2.63,14.87,14.87,0,0,1,3.42,5.81,16.8,16.8,0,0,1,0,10.11,18.44,18.44,0,0,1-4,6.81c-1.15,1.25-1.81,1.79-2.06,2.13-.52.66.5.29.22.78s.63,0,1.15-.06A19.06,19.06,0,0,0,283.27,303a19.35,19.35,0,0,1-15.86,15.5l1.29-.57c-3.62,1-9-.07-10.24-.37-10.21-2.1-21.38-3.67-29.14-4.83-10.32-1.34,11.82,3.29,29,7.28a25.29,25.29,0,0,0,9.81.53,21.52,21.52,0,0,0-1.89-42.66c-3.45-.16-5.82,0-8.78-.08h-14l-7.12,0a43.45,43.45,0,0,1-6.57-.27,14.4,14.4,0,0,0,2.16.19h2.79l5.66,0,11.32-.06,11.32-.06c3.92-.22,9.3.71,13.11,3.29l0-.14a22.12,22.12,0,0,0-8.83-3.19,77.89,77.89,0,0,0-8.08-.22c-9.88,0-17.21,0-23.36-.32-1.28-.09-3.36-.07-4.62-.2a13.11,13.11,0,0,1-4.29-1.11,12.7,12.7,0,0,1-7.1-8.72,12.24,12.24,0,0,1,2.34-10.32l-3.94-3.12a5.72,5.72,0,0,1,1.62,1.07l2.33,2,.1-.11.23-.24,0,0,1.29-1.31.27-.25c7.69-7.76,15.39-15.41,20.49-20,3.06-2.75.87-.07,1.06.12l30.4-30.4L263,220.43l6.18-6c-18,18.25-8.35,9.9-22.94,24.95l14.61-14.15c-4.53,4.93-10,10.67-6.91,8.25,2.39-1.89-6.23,7.38-8.89,10.64-1.07,1.31,1.5-1,1-.18a32.43,32.43,0,0,1-4.57,5.47l-10.92,11.51-.74.69a1,1,0,0,1-.35.41l-.69.75,0,0h0l-6.32-6.29.28.28,1.11,1.1,1.24,1.22.88.86.06.06-.3-.29-2.6-2.42c-1.94-1.76-4.19-3.68-4.75-3.78l11,8.66a4.24,4.24,0,0,0-.92,2.58,3,3,0,0,0,.55,1.58,4,4,0,0,0,1.7,1.33c1,.23.1.29,4.74.23h29.5l2.27.12a31.29,31.29,0,0,1,1.26,62.24,35,35,0,0,1-11.52-.67c-3.2-.67-5.12-1.3-7.32-1.7l-6.87-1.37-13.81-2.7L218,321.74l-5.42-1a9.49,9.49,0,0,0-1.25-.11,2.08,2.08,0,0,0-.76-.07,4,4,0,0,0-3.4,3.23l.35-3.09,0,.29-.33,3a195.88,195.88,0,0,0-2.82,19.73c-1.22,12.25-1.78,24.8-2,37.39l-.05,9.3a30.73,30.73,0,0,0,.82,6.55,30.07,30.07,0,0,0,5.75,11.73,28.42,28.42,0,0,0,7.62,6.54A30.37,30.37,0,0,0,260,400.1a28.79,28.79,0,0,0,1.19-3.6l-.25,1.56.34-2.06.22-1.11.47-1.64-.34,1.23a45,45,0,0,1,8.65-17.62,44.38,44.38,0,0,1,16.31-12.61l-1.64.6a44.25,44.25,0,0,1,7.16-3.26,36.88,36.88,0,0,1,10.24-2,43.89,43.89,0,0,1,20.41,3.56c.82.33,1.61.74,2.41,1.14.59.3.23.13.33.17h0v0l0,.1s.07.31.14.35.21,0,.32-.22l0-.09a5,5,0,0,0,.2-1l.9-4.83c.54-3.27,1-6.59,1.34-9.88l.42,3.69c2-18.69.86-24.38,1.45-25.09.3-.73.82,3.47,1.2,4.24a156.89,156.89,0,0,0-17.89-68.55A189.76,189.76,0,0,0,298.09,239a151.8,151.8,0,0,0-13.75-14.93,163.33,163.33,0,0,0-13.09-11.58c2.75,1.71,5.19,3.84,8.28,6.09l-5.9-5.23c-1.67-1.33-2.88-2.35-3.5-2.93-1.24-1.15,0-.65,4.72,2.6,2.1,1.58-.05-.5.49-.28.72.29,2.16,1.17,5.78,3.91a127.2,127.2,0,0,1,17.26,16.87c8.39,9.57,17,21.91,15.07,17.81-1.52-2.93.63-.62,4.33,5.47a131.58,131.58,0,0,1,12.86,28.05,158.89,158.89,0,0,1,7.75,41.43c.1,3,.38,6.28.56,8.23a131.07,131.07,0,0,1-.84,21.63c-.29,2.38-.63,4.82-1,7.25l-.64,3.55-.59,2.88c-.83,3.8-1.83,7.39-2.78,10.3l-1.23,3.53-.58,1.51c0,.09-.08.26-.13.27l-.15-.31-.25-.51a26,26,0,0,0-2.8-4.56,18.71,18.71,0,0,0-3.9-3.88,22.7,22.7,0,0,0-3.12-1.92,34.85,34.85,0,0,0-7.07-2.62A27.75,27.75,0,0,1,328.2,382a26,26,0,0,1,2,3.1,18.75,18.75,0,0,1,1.49,3.21,26.7,26.7,0,0,0-3.35-5.16,28.11,28.11,0,0,0-7.87-6.65,31.88,31.88,0,0,0-47,20.72l0-.12a17.1,17.1,0,0,0-.44,2.21l0-.15a42.27,42.27,0,0,1-63.9,26.57c-1.45-.81-2.66-1.86-4-2.74a1.65,1.65,0,0,0,.32.37,42.55,42.55,0,0,0,68-24.09l0,.1a16.91,16.91,0,0,1,.43-2.1l0,.08a33.53,33.53,0,0,1,2.53-7A31.8,31.8,0,0,1,300.4,373a30.05,30.05,0,0,1,19.54,3.7c2.86,1.81,3.38,2.69,2.29,2.3a30,30,0,0,1,9.39,10l.57,1.08c.18.21.4,1.12.51.39l.78-2.29c1-3,1.86-5.84,2.63-8.7A170.2,170.2,0,0,0,339.88,362a160.1,160.1,0,0,0-6.34-77.36,190.3,190.3,0,0,0-11.77-27.1,166.27,166.27,0,0,0-27.77-37A195.55,195.55,0,0,0,274.82,204c-3.8-3-4.64-3.87-2.57-2.78,3,1.6,4.83,2.27,7.53,3.53C289.11,212.08,294.69,217.53,292.91,215Zm-10,63.77a26,26,0,0,0-12.3-6.72,29.36,29.36,0,0,0-5.92-.68H253.26l-15.29,0c-2.91,0-6.73.09-7.21-.09a7.14,7.14,0,0,1-3.33-1.51,6.93,6.93,0,0,1-2.25-3.74,2.94,2.94,0,0,1-.32-.51,7.32,7.32,0,0,0,4,5.37,7.42,7.42,0,0,0,3.66.78l8.3,0,16.61.08,4.15,0c1.57,0,2.28-.05,4.81.1a26.93,26.93,0,0,1,12.28,3.89A25.57,25.57,0,0,1,282.93,278.8ZM191,401.3a46.72,46.72,0,0,1-1.23-8.07c-.22-3.2-.07-7.06-.08-11.17.09-8.24.27-17.74.72-27.15-.45,7.13-.69,13.18-.84,19.23l-.06.44c.07-2.92.07-5.85.42-14.36-.58,9.64-.78,15.19-.8,18.54C189.2,387,188.8,394.21,191,401.3Zm-9-86.74c-.51,1.38-.85,2.7-1,3.18l-.33,2.92-.06.29.32-2.85c-1.57,6.61-2.26,10.51-3,14.48a437.11,437.11,0,0,0-2.47,49.49l.13,6.38c.85,10.6,1-15.22,3.34-42.35a226.59,226.59,0,0,1,3.85-27.58l-.27,2.43,0-.29.28-2.49a29,29,0,0,1,14.59-19.06,28.33,28.33,0,0,1,11.94-3.26,36.61,36.61,0,0,1,5.93.35c2,.23,2.72.49,4.14.74l30.09,6c3.09.66,5.64,1.09,8.22,1.73a49.68,49.68,0,0,0,5.08,1.11c2.17.25,2.36,0,2.92-.26a4.65,4.65,0,0,0,2.47-4.5c0-.21-.6.67-1.34,1.13a4.19,4.19,0,0,1-1.44.65,3.85,3.85,0,0,1-1.67,0c-1.13-.14-3.14-.66-6-1.39l-8.11-1.66-31.88-6.13a38.77,38.77,0,0,0-4.19-.53,26.54,26.54,0,0,0-4.37-.14,30,30,0,0,0-7.33,1.27,28.54,28.54,0,0,0-7.6,3.53c-2.23,1.78-.35-.13,6.12-2.48,4-1.13.79.06.89.19a30.53,30.53,0,0,0-13,8.47A31.85,31.85,0,0,0,182.07,314.56Zm130.25,65.78a25.39,25.39,0,0,0-27.23,8.45,24.66,24.66,0,0,0-4.83,9.94l-3.09-.46,2.95,1h0v0l0,.22L280,400l-.1.65A49.53,49.53,0,0,1,196.32,425l-3.19-3.12L190,418.25c-.74-.95-.16.35,1.34,2.46a47.5,47.5,0,0,0,10.08,10.62,70,70,0,0,0,8.46,5.61c1.53,1.22,7.63,4,15.55,5A53.5,53.5,0,0,0,250,439.29a47.31,47.31,0,0,0,13.65-7.53,41.65,41.65,0,0,0,6.93-6.81,55.69,55.69,0,0,0,10.37-20.18l.92-3.73-.24-.92.38,0V400l0-.13v-.14l0,.06v0h0l-.89-.29-3.95-1.3,5,.9a22.69,22.69,0,0,1,4-8.68,24,24,0,0,1,19-9.05,22.86,22.86,0,0,1,9.94,2.4,20.11,20.11,0,0,1,4.12,3,48.41,48.41,0,0,1,4,5.69c2.69,4.33,5.88,9.82,8.87,15.2l.91-1.28.69-.73-.8.51-.9.86c-4.83-9.13-8.58-16.07-11.31-19.95a22.64,22.64,0,0,0-1.4-1.86L317.95,384a17.53,17.53,0,0,0-2.37-1.78A24.5,24.5,0,0,0,312.31,380.34Zm-83.38-154c3-2.95,7.08-7.18,9.28-9.52,13.72-14.56,6.75-9-11.24,8.33L210.66,241.1l.75-.69q-1.67,1.56-3.26,3.24l.7-.75-.77.81-.64.74-.74,1a15.47,15.47,0,0,0-.83,1.36,14.68,14.68,0,0,0-1,2.43l-.2.67-.25,1.17a14.16,14.16,0,0,0,1.23,8.64l1.58-14.93A31.61,31.61,0,0,0,225,295.17a32,32,0,0,0,6.3.79l3.88,0,14,0H264.4l.39,0a3.33,3.33,0,0,1,1,.22,3.19,3.19,0,0,1,.5.06,3.32,3.32,0,0,0-1.64-.7l-8.27-.25L239,294.93l-4.35-.11-2.18-.06c-.68,0-2.34-.11-3.45-.21a30.85,30.85,0,0,1-13.93-5.3,30.13,30.13,0,0,1-12.76-25.52,29.14,29.14,0,0,1,1-7.28,28.4,28.4,0,0,0-.61,7.28A29.27,29.27,0,0,1,209,246.23l-1.31,12.45a11.91,11.91,0,0,1-1.1-6.72,12.28,12.28,0,0,1,.27-1.41l.09-.33.21-.65a13.84,13.84,0,0,1,.85-1.87,12.25,12.25,0,0,1,.69-1.1l.59-.77.53-.6.64-.66-.58.62c1.13-1.19,2.08-2.12,3-3l-.62.58ZM496.39,90.67A95.81,95.81,0,0,0,462.07,36l1.18.76c-2.6-2-5-4.14-7.81-5.91C436.9,18.4,413.81,13.44,391.74,16c-2.9.49-6,.83-8.69,1.43C371.83,20,369,21.82,370.24,21.5c1.22-.06-1.23.84-4.83,2.53a102.44,102.44,0,0,0-12,6.69c-19.55,12.51-35.48,33.88-40.82,58.09A92.53,92.53,0,0,0,317.83,147c1.71,3.19,3.44,7.62,5.82,11.12a90.82,90.82,0,0,0,37.11,35.08c2.11,1,7,3.65,8.31,4a34.61,34.61,0,0,1,4.1,2.31c3.21,1.29,7.25,2.15,12,3.35a33.84,33.84,0,0,1-3.9-.67,100.94,100.94,0,0,0,52.54-2.35l1.36-.89a59.31,59.31,0,0,0,8.36-3.45l4.72-2.27,5.2-3.14-3.8,2.45c.38.14,2.48-.8.42.69a37.31,37.31,0,0,1-5.53,3.07l-4.06,2-4.17,1.57c-5.54,2.22-8.1,2.53-9.68,3.3a34,34,0,0,1-5.47,1.53l-8.35,1.49c-12.23,1-8.23,1.38-9,1.92-.27.19.4.34.74.58.78-.09,4.23,0,10.41-.46a96.44,96.44,0,0,1-17.26.81l1-.27a74.93,74.93,0,0,1-7.72-.61,109.86,109.86,0,0,1-23.33-4.69c-8.17-2.66,8.74,5.65,23.34,7.14a98.71,98.71,0,0,0,27.59-.42,96.13,96.13,0,0,0,26.62-7.93,82.56,82.56,0,0,0,10.15-5.37,86.51,86.51,0,0,0,9.8-6.61,101.33,101.33,0,0,1-32.82,17.23l.07.13c3.93-1.26,7.89-2.6,11.67-4.24a161.77,161.77,0,0,0,17-9.13c1.94-1.31,4.52-3,7.54-5.41,2.8-2.62,6.44-5.43,9.83-9.5l3.32-3.71,3.16-4.22a76.16,76.16,0,0,0,6-9,85.86,85.86,0,0,0,4.79-8.9c1.5-2.75,2.52-5.36,3.42-7.45,1.38-3.14.72-.33,1-.23a101.08,101.08,0,0,0,6.34-35.34,115.85,115.85,0,0,1,.5,17.61l1.2-7.27-1.43,11.2c-.46,2.31-.64,3.57-.78,4.71-.35,2.27-.16,4.18-3.29,12.75A115.47,115.47,0,0,0,508,132.71c-1.13,5.71-2.75,12.48-1.43,9.33,1.26-2.42-2,8.29-3.06,11.89-.49,1.43,1-1.25.83-.43a25.17,25.17,0,0,1-2.18,6c-4.38,8.63-6,13.26-16.33,24.7-.95.93-3.39,3.77-5,5.28a108.32,108.32,0,0,1-65.71,31.07,113.64,113.64,0,0,1-50-6.31,110.66,110.66,0,0,1-48.25-34.3,109.24,109.24,0,0,1-17.21-30.14,104.56,104.56,0,0,1-7-34,108.93,108.93,0,0,1,.08-13.3A106.75,106.75,0,0,1,301.08,67a107.87,107.87,0,0,1,17.76-27.76c4.92-5.65,15-15.15,24.25-21l-1,.41c3-2.07,4.4-3.54,9.45-6.39A97.8,97.8,0,0,1,385.3,1.23c8.35-1.47,22.25-1.9,35,.28l-3.6.27c18,2.69,22.79,5.93,23.34,6.23.53.53-3.37-.47-4.17-.38A103.79,103.79,0,0,1,469.83,25.4C485.06,37.06,497.29,54.21,503,69.86L505.93,78c1,3.41,1.91,7.14,2.63,10,.92,5.91,1.76,10.83,1.73,16.23l-.46-4.55-1-4.89a54.68,54.68,0,0,1,.5,11.45c-.14,1.55-.43.37-1-4.81-.25-2.37-.34.35-.54-.15-.22-.66-.6-2.12-1.45-6.08a114.75,114.75,0,0,0-5.67-20.62c-1.77-5.37-5-10.65-7.14-14.21-2.46-3.42-4-5.14-3.17-3.34,2.05,5.45-5.51-9.45-21.81-23.44A100.22,100.22,0,0,0,438,15.87,37.93,37.93,0,0,0,431.37,14l-7-1.48c-3.1-.56-6.86-.92-10.8-1.48-4-.07-8.16-.47-12.14-.28s-7.78.2-10.9.83l-6.82.91c-8.29,1.59-8.36,1.21-19.74,6l9.33-2.74c3.08-.66,6.06-1.13,8.73-1.61a3.4,3.4,0,0,1,2.34.08c-3.82.85-7.65,1.8-11.39,3-3.65,1.44-7.46,2.47-10.91,4.32-2.4,1.22-4.93,2-7,3.39C326.65,40.81,307.13,71.5,305.48,104c0,1.36-.09,2.66-.14,3.94a1.18,1.18,0,0,0,.13-.39A97.57,97.57,0,0,1,336.73,39l4.39-4,4.75-3.58c3.07-2.54,6.64-4.34,10-6.49,3.45-1.86,6.42-3.15,8.76-4.28,2.4-1,4.3-1.54,5.64-2,2.7-.84,3.35-.83,2.52-.13,4.07-1.46,7.84-2.3,11.33-3.25,3.58-.55,6.92-1.29,10.36-1.63a92.17,92.17,0,0,1,14.37-.31,99.61,99.61,0,0,1,57.54,22c5.11,4.36,11.74,10.69,16.27,17.34a98.56,98.56,0,0,1,16,33.64,78.5,78.5,0,0,1,2.83,20.28c.06,3.89-.13,4.84-.57,3-.65-2.71-1.24-4.13-1.94-6.35C498.13,94.08,496.34,88.28,496.39,90.67Zm-64.92,123a37,37,0,0,0,7.55-2c8.33-2.63,16.27-7.13,23.74-11.84A114.13,114.13,0,0,0,475.12,190a73.56,73.56,0,0,0,6.82-6.59l.66-1a107.29,107.29,0,0,1-48.38,30.39ZM307.09,129.31c1,6.93,5.32,22,14,34.39-1.47-2.44-2.9-4.66-4.14-6.85l-3.21-6.62-.11-.34c1.17,2,1.8,4.33,5.39,10.09a69,69,0,0,1-4.2-8.25,46.53,46.53,0,0,1-2.19-5A110.18,110.18,0,0,1,307.09,129.31Zm42.08,45.48a66.76,66.76,0,0,1-7.32-7.94,83.68,83.68,0,0,1-17.45-27.4l-1.63-4c-1.13-3.37-1.23-.69.62,4.82,1.53,5.59,5.42,13.89,11,21.3,12.12,16.35,30.24,28.55,50.08,32.85,4.13,1,7.42,1.22,9.81,1.62a37.56,37.56,0,0,0,5,0,59.43,59.43,0,0,0,11.26-2.31c.51-.14-2.54-.2-5.16-.15a89.31,89.31,0,0,1-40.78-9.64c-9.43-5.46-10.59-6.36-6.43-3.11,1.29.91.08.41,0,.54A79.82,79.82,0,0,1,349.18,174.79ZM368.12,26.25a105.64,105.64,0,0,0-23.45,14.34,81.45,81.45,0,0,0-20,24.26c-2.1,3.26-3.43,7-5.19,10.52-1.2,3.77-2.92,7.43-3.69,11.44-2.28,7.82-2.91,16.26-2.94,24.93.21,1.36.6,4.26.93,5.85.15.74.27-.15.3-1.77-.24-5,.83-14.13,1.28-15.2.62-1.1,1.06-5,2.18-9.59.65-2.27,1.2-4.79,2-7.22L322,77l3.94-8.39c1.22-2.1,2.07-3.75,2.72-5.13a29.5,29.5,0,0,1,3-5.2,53.3,53.3,0,0,1,4.61-6.46c.78-.88,2.49-3,4.4-4.92l4.84-4.37c11.67-9.42,25.51-16,37.39-18.71-2.8.42-5.58.55-7.82,1.11Zm113.81,117.4c.94-2.74,2.43-6.57,2.91-8.74,1.44-6.79,1.49-8.7.66-6.9s-2.39,7.36-5.77,15.11c-7.47,16.31-20.7,31.42-37.08,40.23l-6.7,3.21c-2.3,1-4.69,1.73-7,2.63a11.64,11.64,0,0,1-1.52.69,88.77,88.77,0,0,0,21.69-9.19,86.9,86.9,0,0,0,18.48-15.06,17.41,17.41,0,0,0,1.81-2.33,17.48,17.48,0,0,1-1.54,2.55A90.31,90.31,0,0,0,481.94,143.65ZM26.4,44.53a26.23,26.23,0,0,1,9.18-15.11l-.25.3L37.6,28.3a26,26,0,0,1,17.3-4c.79.13,1.62.2,2.36.39,3,.8,3.78,1.28,3.6.8-.41-.83,3,.31,5.21,1.62A26.61,26.61,0,0,1,78.85,43.46a29.41,29.41,0,0,1-1,17.61,22.54,22.54,0,0,1-1.73,3.43C73.41,69.07,69.39,72.35,64.69,75A9.79,9.79,0,0,1,62,76a4,4,0,0,1-1.55-.24,29.2,29.2,0,0,1-3.5.82,10.87,10.87,0,0,0,1.05-.49,23.94,23.94,0,0,1-7.72.85,23.49,23.49,0,0,1-7.21-1.64l-.55.19a24.66,24.66,0,0,1-5.24-2.63l1.17.57c.09-.32-.31-.9.39-.71s2.48,1,3.92,1.48,2.21.67,2.72.54,2.45.18,3.76.16c3.21-.25,2.14-.86,2.35-1.35.07-.18-.1-.37-.17-.62-.18,0-1-.11-2.4-.39a22.09,22.09,0,0,0,4-.23l-.21.34a8.52,8.52,0,0,0,1.78-.15,16.29,16.29,0,0,0,4.88-2.38c1.46-1.17-2.37-.22-5.24,0a21,21,0,0,1-10.88-1.73,15.25,15.25,0,0,1-3.92-2.5A20,20,0,0,0,46.06,69l0-.14L43.86,68a8.4,8.4,0,0,1-3.08-2.09c-.57-.75-1.73-1.59-3.09-3-1.7-1.66-3.61-4.52-3.59-6.34,0-.66.49-.28.75-.38a17.55,17.55,0,0,1-1.12-6.17,16.7,16.7,0,0,0,2.33,2.68l0-1.12c.72,3.2,1.31,1.45,2.35,3.69A16.44,16.44,0,0,1,38,52.87c.49.68.86,1.45,1.21.91.23-.39,1.12.69,1.64.88.23.07.27-.3.48-.29s.67,0,.86.3c.53.82,1.3.76,1.83,2.17a2.07,2.07,0,0,0,.44.52,16,16,0,0,0,6.15,3,8.48,8.48,0,0,0,4.81-.48,11.22,11.22,0,0,0,6.73-9.48,3.68,3.68,0,0,0-.08-1.27,36.61,36.61,0,0,0-2.18-6.09,8,8,0,0,0-2.14-2.35v.21c-.45,0-.78.23-1.28,0a27.44,27.44,0,0,1-3-1.19,7.16,7.16,0,0,0-3.35-.41l.24-.85c-3.73.61-2.53-.28-2.57-1.19a14.81,14.81,0,0,0-4,2.35,22.32,22.32,0,0,0-4.45,5.17,11.58,11.58,0,0,0-.74,2.25c-.15.73-.5,1.31-.6,2a6.32,6.32,0,0,1-.32-1.3c-.53,1.43-.88,2.35-1.4.76-.12-.37-.35,0-.53-.07-.4-.22-1.09-1.08-.09-4.52.51-1.74.87-4.2.09-3.89-1.16.62-.4-2.73,3-5.57A21.87,21.87,0,0,1,44.81,31,8.06,8.06,0,0,0,46,30.23c1-.9,5.74-2,8.46-1.38a10.19,10.19,0,0,1,1.42.35c1.63.9,1.56.8,4.14,1.34A28.9,28.9,0,0,0,56.61,28c-.42-.29-.28-.45-.4-.67a22.08,22.08,0,0,1,5.22,1.71c.56.3,1.07.65,1.56,1A23,23,0,0,1,74.8,48.4l.11.93s.1-.05.1-.1a23.16,23.16,0,0,0-7.3-16.41,22.4,22.4,0,0,0-4.62-3.29c-3.32-1.72-4.41-2-3.68-2.6a25.18,25.18,0,0,0-5.46-.78c-1.15,0-2.33,0-3.52.11A21,21,0,0,0,37,32.33a29.8,29.8,0,0,0-3.69,4.16,22,22,0,0,0-3.5,7.88c-.85,4.42-.73,6.24-1.52,5.35A22.48,22.48,0,0,0,26.75,48C26.9,45.65,27,44,26.4,44.53ZM48,63.6a7.88,7.88,0,0,0-.85-.66,17.77,17.77,0,0,1-3.07-1.47,13.51,13.51,0,0,1-1.65-1.22,4.5,4.5,0,0,1-.81-.93l-.26,0a14.24,14.24,0,0,0,6.22,4.32Zm26.5-9.21a68.38,68.38,0,0,1-3.21,8.22A23.1,23.1,0,0,0,73,59.38l.08-.06A25.34,25.34,0,0,1,72,61.82a15.44,15.44,0,0,0,1.7-3.13A20.85,20.85,0,0,0,74.54,54.39Zm1.18,24c1.66-1.23,2.87-2,3.88-2.91a37.26,37.26,0,0,0,7-12.75,12.85,12.85,0,0,0,.47-1.83c.05-3.23-2.29,4.09-6.95,10.1a34.48,34.48,0,0,1-20.7,13.25c-3.42.67-5.27.8-6,1.13-1.73.85-3.44,1.42-4.9,2.07-.25.1,1.11.38,2.3.53,6,.75,13-1.16,18.78-4.23,4.37-2.51,4.67-3.18,2.5-2.16-.67.27-.27-.19-.36-.32C73.19,80.39,74.94,78.92,75.72,78.38Zm-12.45-56A28.24,28.24,0,0,1,71,27a38.32,38.32,0,0,1,6.86,7.77,29.85,29.85,0,0,1,4.6,15.56c.12.46.31,1.46.53,2,.1.27.28,0,.42-.58.52-1.73.55-5.05.84-5.51.63-.93-.37-5.9-1.71-9.06a12.07,12.07,0,0,0-2.95-4.85c-.88-.84-2.22-2.12-3.77-3.5l-3.4-3.21c-3.76-3.91-9.09-5.88-13.3-6.85a22.12,22.12,0,0,1,2.37,1.72C62.15,21.18,62.69,21.76,63.28,22.37ZM18.73,63.86l-1.46-3.61c-1-2.75-1.59-3.53-1.79-2.61s0,3.55,1.27,7.24C19.55,72.73,26,79.59,33.47,83.74a39.07,39.07,0,0,0,6.38,2.74l.79.07A37.45,37.45,0,0,1,24.12,73.63a11.3,11.3,0,0,1-.88-.91,12.11,12.11,0,0,0,1.14.69A38.64,38.64,0,0,1,18.73,63.86ZM426.35,286.93a26.23,26.23,0,0,1,9.18-15.11l-.25.3,2.27-1.43a26,26,0,0,1,17.3-4c.79.13,1.62.2,2.36.39,3,.8,3.78,1.28,3.6.8-.41-.83,3,.31,5.21,1.62a26.6,26.6,0,0,1,12.79,16.38,29.41,29.41,0,0,1-1,17.61,22.53,22.53,0,0,1-1.73,3.43c-2.72,4.58-6.74,7.85-11.44,10.55a9.79,9.79,0,0,1-2.65.92,4,4,0,0,1-1.55-.24,29.2,29.2,0,0,1-3.5.82,10.87,10.87,0,0,0,1.05-.49,23.94,23.94,0,0,1-7.72.85,23.49,23.49,0,0,1-7.21-1.64l-.55.19a24.66,24.66,0,0,1-5.24-2.63l1.17.57c.09-.32-.31-.9.39-.71s2.48,1,3.92,1.48,2.21.67,2.72.54,2.45.18,3.76.16c3.21-.25,2.14-.86,2.35-1.35.07-.18-.1-.37-.17-.62-.18,0-1-.11-2.4-.39a22.09,22.09,0,0,0,4-.23l-.21.34a8.52,8.52,0,0,0,1.78-.15,16.29,16.29,0,0,0,4.88-2.38c1.46-1.17-2.37-.22-5.24,0a21,21,0,0,1-10.88-1.73,15.25,15.25,0,0,1-3.92-2.5,20,20,0,0,0,6.61,3.18l0-.14-2.24-.9a8.4,8.4,0,0,1-3.08-2.09c-.57-.75-1.73-1.59-3.09-3-1.7-1.66-3.61-4.52-3.59-6.34,0-.66.49-.28.75-.38a17.55,17.55,0,0,1-1.12-6.17A16.7,16.7,0,0,0,436,295l0-1.12c.72,3.2,1.31,1.45,2.35,3.69a16.44,16.44,0,0,1-.38-2.33c.49.68.86,1.45,1.21.91.23-.39,1.12.69,1.64.88.23.07.27-.3.48-.29s.67,0,.86.3c.53.82,1.3.76,1.83,2.17a2.07,2.07,0,0,0,.44.52,16,16,0,0,0,6.15,3,8.48,8.48,0,0,0,4.81-.48,11.22,11.22,0,0,0,6.73-9.48,3.68,3.68,0,0,0-.08-1.27,36.61,36.61,0,0,0-2.18-6.09,8,8,0,0,0-2.14-2.35v.21c-.45,0-.78.23-1.28,0a27.44,27.44,0,0,1-3-1.19,7.16,7.16,0,0,0-3.35-.41l.24-.85c-3.73.61-2.53-.28-2.57-1.19a14.81,14.81,0,0,0-4,2.35,22.32,22.32,0,0,0-4.45,5.17,11.58,11.58,0,0,0-.74,2.25c-.15.73-.5,1.31-.6,2a6.32,6.32,0,0,1-.32-1.3c-.53,1.43-.88,2.35-1.4.76-.12-.37-.35,0-.53-.07-.4-.22-1.09-1.08-.09-4.52.51-1.74.87-4.2.09-3.89-1.16.62-.4-2.73,3-5.57a21.87,21.87,0,0,1,6.12-3.59,8.06,8.06,0,0,0,1.23-.73c1-.9,5.74-2,8.46-1.38a10.19,10.19,0,0,1,1.42.35c1.63.9,1.56.8,4.14,1.34a28.9,28.9,0,0,0-3.46-2.49c-.42-.29-.28-.45-.4-.67a22.08,22.08,0,0,1,5.22,1.71c.56.3,1.07.65,1.56,1a23,23,0,0,1,11.81,18.36l.11.93s.1-.05.1-.1a23.16,23.16,0,0,0-7.3-16.41,22.4,22.4,0,0,0-4.62-3.29c-3.32-1.72-4.41-2-3.68-2.6a25.18,25.18,0,0,0-5.46-.78c-1.15,0-2.33,0-3.52.11a21,21,0,0,0-13.43,6.07,29.8,29.8,0,0,0-3.69,4.16,22,22,0,0,0-3.5,7.88c-.85,4.42-.73,6.24-1.52,5.35a22.48,22.48,0,0,0-1.53-1.68C426.85,288,427,286.43,426.35,286.93ZM448,306a7.88,7.88,0,0,0-.85-.66,17.77,17.77,0,0,1-3.07-1.47,13.51,13.51,0,0,1-1.65-1.22,4.5,4.5,0,0,1-.81-.93l-.26,0a14.24,14.24,0,0,0,6.22,4.32Zm26.5-9.21a68.38,68.38,0,0,1-3.21,8.22,23.1,23.1,0,0,0,1.71-3.23l.08-.06a25.34,25.34,0,0,1-1.12,2.5,15.44,15.44,0,0,0,1.7-3.13A20.85,20.85,0,0,0,474.49,296.79Zm1.18,24c1.66-1.23,2.87-2,3.88-2.91a37.26,37.26,0,0,0,7-12.75,12.85,12.85,0,0,0,.47-1.83c.05-3.23-2.29,4.09-6.95,10.1a34.48,34.48,0,0,1-20.7,13.25c-3.42.67-5.27.8-6,1.13-1.73.85-3.44,1.42-4.9,2.07-.25.1,1.11.38,2.3.53,6,.75,13-1.16,18.78-4.23,4.37-2.51,4.67-3.18,2.5-2.16-.67.27-.27-.19-.36-.32C473.14,322.79,474.89,321.32,475.68,320.78Zm-12.45-56a28.24,28.24,0,0,1,7.71,4.65,38.32,38.32,0,0,1,6.86,7.77,29.85,29.85,0,0,1,4.6,15.56c.12.46.31,1.46.53,2,.1.27.28,0,.42-.58.52-1.73.55-5.05.84-5.51.63-.93-.37-5.9-1.71-9.06a12.07,12.07,0,0,0-2.95-4.85c-.88-.84-2.22-2.12-3.77-3.5l-3.4-3.21c-3.76-3.91-9.09-5.88-13.3-6.85a22.12,22.12,0,0,1,2.37,1.72C462.11,263.57,462.64,264.16,463.23,264.77Zm-44.54,41.49-1.46-3.61c-1-2.75-1.59-3.53-1.79-2.61s0,3.55,1.27,7.24c2.81,7.85,9.22,14.71,16.72,18.86a39.07,39.07,0,0,0,6.38,2.74l.79.07A37.45,37.45,0,0,1,424.07,316a11.3,11.3,0,0,1-.88-.91,12.11,12.11,0,0,0,1.14.69A38.64,38.64,0,0,1,418.68,306.25ZM207.53,91.46a4.27,4.27,0,0,0-1.69-2.34l.11,0c-.08-.13-.12-.32-.25-.41a4.33,4.33,0,0,0-3-.7l-.4.07c-.54,0-.68.14-.51.42.29.55-.14.77-.31,1.09a3.61,3.61,0,0,0-.62,2.24c.06.52.12,1.09.57,1.33.1,0,.1.14.16.21.16.27.22.84.7.86.06,0,.1.2.09.32l-.14.76a3.55,3.55,0,0,0,.37.22l-.18.2c.38,0,.68-.06,1-.07s.6.09,1,.07l-.07-.37a2.63,2.63,0,0,0,.64-.25l-.07.19c.16.28.39.47.4.7s-.26.46-.5.56-.37.13-.38.42-.38.43-.64.64c-.65.44-.45,1-.48,1.49a3.13,3.13,0,0,0,.06.61l.8.18a7.4,7.4,0,0,1-1.34.37l.1-.32a4.54,4.54,0,0,0-.59,0,16.3,16.3,0,0,1-2.17.62c-.95.21.41,1.57,1.9,1.79a9.43,9.43,0,0,0,5.39-.79,20.88,20.88,0,0,0,2-1.12,10.26,10.26,0,0,1-3.25,1.93l0,.14a7.71,7.71,0,0,0,1.24-.38,6.74,6.74,0,0,1,1.94-.72,3.7,3.7,0,0,0,2-1.44c.95-1.07,1.61-2.82,2.47-3.57.34-.29.55.13.81.23a12.08,12.08,0,0,0,.75-4.2,12.36,12.36,0,0,1,1.87,2.39l.28-1c-.3,3,.91,1.73.38,4.4a16.3,16.3,0,0,0,1.08-2.46c.09.92,0,2,.55,1.65s.35,1.55.47,2.31c.05.3.46-.09.57.11a1.29,1.29,0,0,1,.1,1.28c-.7,1.54-.52,2.74-2.71,4.54-.19.15-.64.64-.91.93A17.1,17.1,0,0,1,205.4,112a22.93,22.93,0,0,1-8.89-1.22,19.79,19.79,0,0,1-8.73-6,19.56,19.56,0,0,1-4.34-11.54l0-2.37c-.31-4.15,2.3-9.31,4.87-11.24a28.37,28.37,0,0,1,4.46-3.47l-.26-.05a4.55,4.55,0,0,1,1.41-1.63,12,12,0,0,1,6.18-1.87,25.21,25.21,0,0,1,6.24.38l-.72.71c3.09.52,3.83,1.27,3.83,1.56s-.75.49-1,.79a15.22,15.22,0,0,1,5.48,2.68A13.22,13.22,0,0,1,218.87,86a25.81,25.81,0,0,1,.84,2.87,10.69,10.69,0,0,1,0,2.55,12.76,12.76,0,0,0-.59-1.39c-.1,1.74-.56,2.5-1.17,1.09-.15-.32-.35.07-.53,0-.54-.13-.88-.74-1.85-3.29-.55-1.39-2.34-2.15-2.51-1.47-.35.9-1.67-.31-3.24-1.68a8.9,8.9,0,0,0-3.06-1.76A1.17,1.17,0,0,0,206,83c-.7.17-2.75.31-3.87.44a2.06,2.06,0,0,1-.64,0c-.85-.28-.92-.3-1.83.5a6.47,6.47,0,0,1,1.92.78c.19.12.2.34.29.52a8.76,8.76,0,0,0-1.66.54c-.18.08-.43,0-.59.13a7.29,7.29,0,0,0-3.53,6,1.56,1.56,0,0,0,0,.29l.11,0a7,7,0,0,1,2.34-4.82,8.23,8.23,0,0,1,1.32-1c1-.54,1.38-.38,1.47.35A5.56,5.56,0,0,1,202.7,86a3.09,3.09,0,0,1,1-.16,10.25,10.25,0,0,1,4.31.95,4.46,4.46,0,0,1,1.3,1.22,8.18,8.18,0,0,1,1.37,2.5c.48,1.48.09,2.09-.58,1.8a8.31,8.31,0,0,0-1.63-.33C208.34,91.47,208,91.24,207.53,91.46Zm0,16.45a2.93,2.93,0,0,0,1.25,0,14,14,0,0,0,3.63-1.86,18.38,18.38,0,0,0,1.85-1.55l1.1-.95,0-.27a16.13,16.13,0,0,1-7.43,4.36ZM196.31,93.73a2.53,2.53,0,0,0,1.11,2.44,7,7,0,0,1-.56-.95l0,0a7.19,7.19,0,0,0,.51.65c-.2-.51-.22-.82-.32-1C196.81,94.47,196.54,94.13,196.31,93.73Zm7-1.36h0v0c0,.06,0,0,0-.13v.07s0-.13,0,0v.12l0-.05-.06,0h0l.06,0h0Zm-.17-.39s0,.16-.08.1,0,.16.13.24,0,0,.23.06h0c.14,0-.06,0-.06,0h-.06l0,0,0,0h0s0-.09,0-.06h0S203.33,92.47,203.11,92Zm.14.37h0l0,.07h0v0c-.05-.08,0,0,0,0h0ZM401.44,418.69a4.27,4.27,0,0,0-1.69-2.34l.11,0c-.08-.13-.12-.32-.25-.41a4.33,4.33,0,0,0-3-.7l-.4.07c-.54,0-.68.14-.51.42.29.55-.14.77-.31,1.09a3.61,3.61,0,0,0-.62,2.24c.06.52.12,1.09.57,1.33.1,0,.1.14.16.21.16.27.22.84.7.86.06,0,.1.2.09.32l-.14.76a3.55,3.55,0,0,0,.37.22l-.18.2c.38,0,.68-.06,1-.07s.6.09,1,.07l-.07-.37a2.63,2.63,0,0,0,.64-.25l-.07.19c.16.28.39.47.4.7s-.26.46-.5.56-.37.13-.38.42-.38.43-.64.64c-.65.44-.45,1-.48,1.49a3.13,3.13,0,0,0,.06.61l.8.18a7.4,7.4,0,0,1-1.34.37l.1-.32a4.54,4.54,0,0,0-.59,0,16.3,16.3,0,0,1-2.17.62c-.95.21.41,1.57,1.9,1.79a9.43,9.43,0,0,0,5.39-.79,20.89,20.89,0,0,0,2-1.12,10.26,10.26,0,0,1-3.25,1.93l0,.14a7.71,7.71,0,0,0,1.24-.38,6.74,6.74,0,0,1,1.94-.72,3.7,3.7,0,0,0,2-1.44c.95-1.07,1.61-2.82,2.47-3.57.34-.29.55.13.81.23a12.08,12.08,0,0,0,.75-4.2,12.36,12.36,0,0,1,1.87,2.39l.28-1c-.3,3,.91,1.73.38,4.4a16.3,16.3,0,0,0,1.08-2.46c.09.92,0,2,.55,1.65s.35,1.55.47,2.31c.05.3.46-.09.57.11a1.29,1.29,0,0,1,.1,1.28c-.7,1.54-.52,2.74-2.71,4.54-.19.15-.64.64-.91.93a17.1,17.1,0,0,1-11.81,5.49,22.93,22.93,0,0,1-8.89-1.22,19.79,19.79,0,0,1-8.73-6,19.56,19.56,0,0,1-4.34-11.54l0-2.37c-.31-4.15,2.3-9.31,4.87-11.24a28.37,28.37,0,0,1,4.46-3.47l-.26-.05a4.55,4.55,0,0,1,1.41-1.63,12,12,0,0,1,6.18-1.87,25.21,25.21,0,0,1,6.24.38l-.72.71c3.09.52,3.83,1.27,3.83,1.56s-.75.49-1,.79a15.22,15.22,0,0,1,5.48,2.68,13.22,13.22,0,0,1,4.95,7.24,25.81,25.81,0,0,1,.84,2.87,10.69,10.69,0,0,1,0,2.55,12.76,12.76,0,0,0-.59-1.39c-.1,1.74-.56,2.5-1.17,1.09-.15-.32-.35.07-.53,0-.54-.13-.88-.74-1.85-3.29-.55-1.39-2.34-2.15-2.51-1.47-.35.9-1.67-.31-3.24-1.68a8.9,8.9,0,0,0-3.06-1.76,1.17,1.17,0,0,0-.74.07c-.7.17-2.75.31-3.87.44a2.06,2.06,0,0,1-.64,0c-.85-.28-.92-.3-1.83.5a6.47,6.47,0,0,1,1.92.78c.19.12.2.34.29.52a8.76,8.76,0,0,0-1.66.54c-.18.08-.43,0-.59.13a7.29,7.29,0,0,0-3.53,6,1.56,1.56,0,0,0,0,.29l.11,0a7,7,0,0,1,2.34-4.82,8.23,8.23,0,0,1,1.32-1c1-.54,1.38-.38,1.47.35a5.56,5.56,0,0,1,1.32-.63,3.09,3.09,0,0,1,1-.16,10.25,10.25,0,0,1,4.31.95,4.46,4.46,0,0,1,1.3,1.22,8.18,8.18,0,0,1,1.37,2.5c.48,1.48.09,2.09-.58,1.8a8.31,8.31,0,0,0-1.63-.33C402.25,418.71,401.91,418.47,401.44,418.69Zm0,16.45a2.93,2.93,0,0,0,1.25,0,14,14,0,0,0,3.63-1.86,18.38,18.38,0,0,0,1.85-1.55l1.1-.95,0-.27a16.13,16.13,0,0,1-7.43,4.36ZM390.23,421a2.53,2.53,0,0,0,1.11,2.44,7,7,0,0,1-.56-.95l0,0a7.19,7.19,0,0,0,.51.65c-.2-.51-.22-.82-.32-1C390.73,421.7,390.46,421.36,390.23,421Zm7-1.36h0v0c0,.06,0,0,0-.13v.07s0-.13,0,0v.12l0-.05-.06,0h0l.06,0h0Zm-.17-.39s0,.16-.08.1,0,.16.13.24,0,0,.23.06h0c.14,0-.06,0-.06,0h-.06l0,0,0,0h0s0-.09,0-.06h0S397.24,419.7,397,419.21Zm.14.37h0l0,.07h0v0c-.05-.08,0,0,0,0h0Zm-65-347.1,5.34-.21-.11.09a3.65,3.65,0,0,0,.79.18c1.8,0,3.61,0,5.41,0,.24,0,.49,0,.71,0,.93.09,1.19.07,1.09-.26-.19-.62.85-.69,1.57-.85,1.9-.42,4-.63,6-.87,1.63-.2,3.36-.17,4.92-.49a6.14,6.14,0,0,1,1,0,31.78,31.78,0,0,0,4.3.15,1.35,1.35,0,0,1,.77.25,2.51,2.51,0,0,1,.38.76l1,.12-.32.24c.83-.07,1.54-.18,2.23-.16s1.37.16,2.13.25l.13-.37,1.67.06-.37.12c0,.32.21.61,0,.81a2.72,2.72,0,0,1-1.24.3c-.48,0-.69,0-.83.29s-.74.34-1.14.51c-1,.41-.66,1-.72,1.47a3.1,3.1,0,0,0,.06.62l.82.23-1.35.34.08-.32a2.46,2.46,0,0,0-.61,0,12.82,12.82,0,0,0-1.86,1.13c-.66.55.77,1.23,1.88,1.29,1.4.08,2.83,0,4.25.05a10.89,10.89,0,0,1,1.78.11l-2.84.22v.14c.32,0,.63.07.95.07a2.31,2.31,0,0,1,1.47.32,2.78,2.78,0,0,0,1.74.25c1-.06,2.29-.33,3,.25.26.22,0,.56,0,.84H379l-1.3,2.08.54.14c-1.61.2-.81,1.1-2.13,1.42l1.28.32c-.42.28-.92.49-.67.94s-.6.81-.87,1.24c-.11.17.11.38.05.57s-.17.59-.45.63c-.68.1-1,.81-2.07.3a1.26,1.26,0,0,0-.51,0,17.33,17.33,0,0,1-5.16-.1,21.91,21.91,0,0,0-3.55-.13c-1.4,0-2.78.21-4.18.25-1.61,0-3.24,0-4.86,0a4,4,0,0,0-.93.07,8.12,8.12,0,0,1-4.85-.29,11.29,11.29,0,0,0-2.25-.35l.08.19c-.26.24-.39.6-.79.68a4.34,4.34,0,0,1-2.48-.19,14.31,14.31,0,0,0-2.46-.41l.25-.8c-2.56-.13-1.52-1-1.42-1.7-1,.08-1.87.22-2.75.2a11.51,11.51,0,0,1-4-.43,12.27,12.27,0,0,0-1.36,0,7.38,7.38,0,0,1-1.17-.35l.69-.45c-.82-.32-1.24-.74-.48-1.29.17-.13,0-.35,0-.53.1-.47.44-1,2-1.09.84-.06,1.81-1.12,1.52-1.62-.43-.74.81-1.42,2.44-1.39.91,0,1.82,0,2.72,0a1,1,0,0,0,.53-.3,5.76,5.76,0,0,1,3.17-.75,1.39,1.39,0,0,1,.53.13c.65.47.64.48,1.59.06-.51-.46-1-.89-1.44-1.33-.16-.17-.12-.38-.18-.57.62,0,1.23,0,1.85,0,.21,0,.42.16.61.15,2.55-.07,5.1-.16,7.65-.24a1.89,1.89,0,0,0,.31-.06s0-.11,0-.11c-2-.05-4.07-.11-6.1-.14-.62,0-1.25.06-1.88.07-1.24,0-1.59-.16-1.43-.91-.69.14-1.22.25-1.77.35a8.26,8.26,0,0,1-1.14.15,24.19,24.19,0,0,0-4.95.74,12.28,12.28,0,0,1-1.87.13c-1,.06-2,.09-2.94.18-1.54.15-2.14-.12-1.84-.81.21-.51.33-1,.51-1.61C331.86,73.25,332.34,73,332.16,72.48ZM369,84.25c.19.13.35.36.56.37.63,0,1.27,0,1.91,0,.38,0,.76-.07,1.14-.08a4.36,4.36,0,0,1,.68.1l.09-.2-4.17-.31Zm-12.69-9a4.29,4.29,0,0,0,2.95-.11l-1.21,0,0,0,.9-.15a5.85,5.85,0,0,0-1.17-.14C357.19,74.91,356.74,75.08,356.26,75.23Zm5.23-14a5.73,5.73,0,0,1-1-.6l-3,.65a.89.89,0,0,0-.39.17c-.65.71.94,1.63,2.6,1.62,1.83,0,3.68.08,5.5.19.76,0,1.17,0,1.34-.34a21.13,21.13,0,0,0,1-2.15c0-.12-.23-.31-.48-.41-1.21-.48-2.62-.17-3.94-.16-1,0-1.15.2-.66.59.15.12,0,.31,0,.46A4.25,4.25,0,0,1,361.49,61.24ZM345.7,68.55a15,15,0,0,1,2.33,0,8.08,8.08,0,0,0,2.68-.26c1.31-.2,2.68-.33,4.16-.51a4.08,4.08,0,0,0,.5-.63c.06-.12,0-.28-.15-.39-.43-.33-1.22-.62-1.32-1-.2-.7-1.37-.48-2.16-.6a1.29,1.29,0,0,0-1.32.37,4.23,4.23,0,0,1-1.21.93,2.36,2.36,0,0,1-1.13.11c-1.29-.5-2.6-.11-3.65-.13.24.37.48.69.67,1S345.5,68.18,345.7,68.55Zm30.24-6a2,2,0,0,0,.84-.17c1.26-.6.7-1.61-.87-2.06s-3.46-.24-5.18-.35c-.46,0-.93,0-1.39,0l-.15.18L373.55,62l.27-.1-.27.44C374.4,62.43,375.16,62.53,375.94,62.57Zm-56.31,46.26,4-.21-.08.09a2.18,2.18,0,0,0,.6.18c1.35,0,2.7,0,4.06,0a4.16,4.16,0,0,1,.54,0c.7.09.89.07.82-.26-.14-.62.64-.69,1.18-.85a36.11,36.11,0,0,1,4.5-.87,35.46,35.46,0,0,0,3.69-.49,3.47,3.47,0,0,1,.78,0,17.92,17.92,0,0,0,3.23.15.86.86,0,0,1,.57.25,2.89,2.89,0,0,1,.29.76l.77.12-.24.24a13.39,13.39,0,0,1,1.68-.16,12.29,12.29,0,0,1,1.59.25l.1-.37,1.25.06-.28.12c0,.32.16.61,0,.81a1.65,1.65,0,0,1-.93.3c-.36,0-.52,0-.62.29s-.55.34-.85.51c-.74.41-.5,1-.54,1.47a4,4,0,0,0,0,.62l.61.23-1,.34.06-.32c-.16,0-.39,0-.46,0a9.67,9.67,0,0,0-1.39,1.13c-.49.55.58,1.23,1.41,1.29,1,.08,2.12,0,3.19.05a6.15,6.15,0,0,1,1.34.11l-2.13.22s0,.1,0,.14a6.12,6.12,0,0,0,.71.07,1.4,1.4,0,0,1,1.1.32,1.64,1.64,0,0,0,1.3.25c.72-.06,1.72-.33,2.23.25.19.22,0,.56,0,.84h2l-1,2.08.41.14c-1.21.2-.61,1.1-1.6,1.42l1,.32c-.31.28-.69.49-.5.94s-.45.81-.65,1.24c-.08.17.08.38,0,.57s-.13.59-.33.63c-.51.1-.75.81-1.55.3a.72.72,0,0,0-.38,0,9.8,9.8,0,0,1-3.87-.1,12.36,12.36,0,0,0-2.66-.13c-1,0-2.09.21-3.14.25-1.21,0-2.43,0-3.65,0a2.24,2.24,0,0,0-.7.07,4.67,4.67,0,0,1-3.64-.29,6.55,6.55,0,0,0-1.69-.35l.06.19c-.19.24-.29.6-.6.68a2.5,2.5,0,0,1-1.86-.19,8.31,8.31,0,0,0-1.84-.41l.19-.8c-1.92-.13-1.14-1-1.06-1.7a16.14,16.14,0,0,1-2.06.2,6.6,6.6,0,0,1-3-.43c-.2-.11-.7,0-1,0a4.55,4.55,0,0,1-.88-.35l.52-.45c-.61-.32-.93-.74-.36-1.29.13-.13,0-.35,0-.53.07-.47.33-1,1.53-1.09.63-.06,1.36-1.12,1.14-1.62-.32-.74.61-1.42,1.83-1.39.68,0,1.36,0,2,0,.15,0,.3-.18.4-.3a3.5,3.5,0,0,1,2.38-.75.84.84,0,0,1,.4.13c.49.47.48.48,1.2.06-.38-.46-.76-.89-1.08-1.33a1.38,1.38,0,0,1-.13-.57c.46,0,.93,0,1.39,0,.16,0,.31.16.46.15,1.91-.07,3.82-.16,5.73-.24a1.11,1.11,0,0,0,.23-.06s0-.11,0-.11c-1.53-.05-3-.11-4.58-.14-.47,0-.94.06-1.41.07-.93,0-1.2-.16-1.08-.91-.52.14-.92.25-1.33.35a4.74,4.74,0,0,1-.86.15,14,14,0,0,0-3.71.74,7,7,0,0,1-1.4.13c-.74.06-1.48.09-2.21.18-1.15.15-1.6-.12-1.38-.81.16-.51.25-1,.38-1.61C319.41,109.61,319.77,109.34,319.63,108.83Zm27.6,11.77c.14.13.26.36.42.37a11.16,11.16,0,0,0,1.43,0c.29,0,.57-.07.85-.08a2.51,2.51,0,0,1,.51.1l.07-.2-3.13-.31Zm-9.52-9a2.47,2.47,0,0,0,2.21-.11l-.91,0,0,0,.68-.15a3.35,3.35,0,0,0-.88-.14A9.32,9.32,0,0,0,337.71,111.59Zm3.93-14a4.34,4.34,0,0,1-.75-.6l-2.26.65a.59.59,0,0,0-.29.17c-.49.71.71,1.63,2,1.62s2.76.08,4.12.19c.57,0,.88,0,1-.34.29-.71.56-1.43.77-2.15,0-.12-.18-.31-.36-.41-.91-.48-2-.17-3-.16-.76,0-.86.2-.5.59.11.12,0,.31,0,.46A2.4,2.4,0,0,1,341.63,97.6Zm-11.85,7.31a8.43,8.43,0,0,1,1.75,0,4.62,4.62,0,0,0,2-.26c1-.2,2-.33,3.12-.51a4.16,4.16,0,0,0,.38-.63.39.39,0,0,0-.11-.39c-.32-.33-.92-.62-1-1-.15-.7-1-.48-1.62-.6a.83.83,0,0,0-1,.37,3.49,3.49,0,0,1-.91.93,1.36,1.36,0,0,1-.85.11c-1-.5-1.95-.11-2.74-.13.18.37.36.69.51,1S329.64,104.54,329.79,104.91Zm22.68-6a1.19,1.19,0,0,0,.63-.17c.94-.6.53-1.61-.65-2.06s-2.59-.24-3.89-.35c-.34,0-.7,0-1,0l-.12.18,3.28,1.83.2-.1-.2.44C351.31,98.79,351.88,98.89,352.47,98.93Zm134.4,13.33-4,.21.08-.09a2.18,2.18,0,0,0-.6-.18c-1.35,0-2.7,0-4.06,0a4.15,4.15,0,0,1-.54,0c-.7-.09-.9-.07-.82.26.14.62-.64.69-1.18.85a36.11,36.11,0,0,1-4.5.87,35.46,35.46,0,0,0-3.69.49,3.47,3.47,0,0,1-.78,0,17.92,17.92,0,0,0-3.23-.15.86.86,0,0,1-.57-.25,2.89,2.89,0,0,1-.29-.76l-.77-.12.24-.24a13.39,13.39,0,0,1-1.68.16,12.29,12.29,0,0,1-1.59-.25l-.1.37-1.25-.06.28-.12c0-.32-.16-.61,0-.81a1.65,1.65,0,0,1,.93-.3c.36,0,.52,0,.62-.29s.55-.34.85-.51c.74-.41.5-1,.54-1.47a4,4,0,0,0,0-.62l-.61-.23,1-.34-.06.32c.16,0,.39,0,.46,0a9.66,9.66,0,0,0,1.39-1.13c.49-.55-.58-1.23-1.41-1.29-1-.08-2.12,0-3.19-.05a6.16,6.16,0,0,1-1.34-.11l2.13-.22s0-.1,0-.14a6.12,6.12,0,0,0-.71-.07,1.4,1.4,0,0,1-1.1-.32,1.64,1.64,0,0,0-1.3-.25c-.72.06-1.72.33-2.23-.25-.19-.22,0-.56,0-.84h-2l1-2.08-.41-.14c1.21-.2.61-1.1,1.6-1.42l-1-.32c.31-.28.69-.49.5-.94s.45-.81.65-1.24c.08-.17-.08-.38,0-.57s.13-.59.33-.63c.51-.1.75-.81,1.55-.3a.72.72,0,0,0,.38,0,9.8,9.8,0,0,1,3.87.1,12.36,12.36,0,0,0,2.66.13c1,0,2.09-.21,3.14-.25,1.21,0,2.43,0,3.65,0a2.24,2.24,0,0,0,.7-.07A4.67,4.67,0,0,1,474,97a6.55,6.55,0,0,0,1.69.35l-.06-.19c.19-.24.29-.6.6-.68a2.5,2.5,0,0,1,1.86.19,8.31,8.31,0,0,0,1.84.41l-.19.8c1.92.13,1.14,1,1.06,1.7a16.14,16.14,0,0,1,2.06-.2,6.6,6.6,0,0,1,3,.43c.2.11.7,0,1,0a4.55,4.55,0,0,1,.88.35l-.52.45c.61.32.93.74.36,1.29-.13.13,0,.35,0,.53-.07.47-.33,1-1.53,1.09-.63.06-1.36,1.12-1.14,1.62.32.74-.61,1.42-1.83,1.39-.68,0-1.36,0-2,0-.15,0-.3.18-.4.3a3.5,3.5,0,0,1-2.38.75.84.84,0,0,1-.4-.13c-.49-.47-.48-.48-1.2-.06.38.46.76.89,1.08,1.33a1.38,1.38,0,0,1,.13.57c-.46,0-.93,0-1.39,0-.16,0-.31-.16-.46-.15-1.91.07-3.82.16-5.73.24a1.11,1.11,0,0,0-.23.06s0,.11,0,.11c1.53.05,3,.11,4.58.14.47,0,.94-.06,1.41-.07.93,0,1.2.16,1.08.91.52-.14.92-.25,1.33-.35a4.74,4.74,0,0,1,.86-.15,14,14,0,0,0,3.71-.74,7,7,0,0,1,1.4-.13c.74-.06,1.48-.09,2.21-.18,1.15-.15,1.6.12,1.38.81-.16.51-.25,1-.38,1.61C487.1,111.48,486.73,111.75,486.87,112.26Zm-27.6-11.77c-.14-.13-.26-.36-.42-.37a11.16,11.16,0,0,0-1.43,0c-.29,0-.57.07-.85.08a2.51,2.51,0,0,1-.51-.1l-.07.2,3.13.31Zm9.52,9a2.47,2.47,0,0,0-2.21.11l.91,0,0,0-.68.15a3.34,3.34,0,0,0,.88.14A9.32,9.32,0,0,0,468.8,109.51Zm-3.93,14a4.34,4.34,0,0,1,.75.6l2.26-.65a.59.59,0,0,0,.29-.17c.49-.71-.71-1.63-2-1.62s-2.76-.08-4.12-.19c-.57,0-.88,0-1,.34-.29.71-.56,1.43-.77,2.15,0,.12.18.31.36.41.91.48,2,.17,3,.16.76,0,.86-.2.5-.59-.11-.12,0-.31,0-.46A2.4,2.4,0,0,1,464.87,123.49Zm11.85-7.31a8.43,8.43,0,0,1-1.75,0,4.62,4.62,0,0,0-2,.26c-1,.2-2,.33-3.12.51a4.16,4.16,0,0,0-.38.63.39.39,0,0,0,.11.39c.32.33.92.62,1,1,.15.7,1,.48,1.62.6a.84.84,0,0,0,1-.37,3.48,3.48,0,0,1,.91-.93,1.36,1.36,0,0,1,.85-.11c1,.5,1.95.11,2.74.13-.18-.37-.36-.69-.51-1S476.87,116.55,476.72,116.18Zm-22.68,6a1.19,1.19,0,0,0-.63.17c-.94.6-.53,1.61.65,2.06s2.59.24,3.89.35c.34,0,.7,0,1,0l.12-.18-3.28-1.83-.2.1.2-.44C455.19,122.31,454.62,122.21,454,122.16Zm20.31,26.46-5.34.21.11-.09a3.65,3.65,0,0,0-.79-.18c-1.8,0-3.61,0-5.41,0-.24,0-.49,0-.71,0-.93-.09-1.19-.07-1.09.26.19.62-.85.69-1.57.85-1.9.42-4,.63-6,.87-1.63.2-3.36.17-4.92.49a6.14,6.14,0,0,1-1,0,31.78,31.78,0,0,0-4.3-.15,1.35,1.35,0,0,1-.77-.25,2.51,2.51,0,0,1-.38-.76l-1-.12.32-.24c-.83.07-1.54.18-2.23.16s-1.37-.16-2.13-.25l-.13.37-1.67-.06.37-.12c0-.32-.21-.61,0-.81a2.72,2.72,0,0,1,1.24-.3c.48,0,.69,0,.83-.29s.74-.34,1.14-.51c1-.41.66-1,.72-1.47a3.11,3.11,0,0,0-.06-.62l-.82-.23,1.35-.34-.08.32a2.47,2.47,0,0,0,.61,0,12.83,12.83,0,0,0,1.86-1.13c.66-.55-.77-1.23-1.88-1.29-1.4-.08-2.83,0-4.25-.05a10.89,10.89,0,0,1-1.78-.11l2.84-.22v-.14c-.32,0-.63-.07-.95-.07a2.31,2.31,0,0,1-1.47-.32,2.78,2.78,0,0,0-1.74-.25c-1,.06-2.29.33-3-.25-.26-.22,0-.56,0-.84h-2.7l1.3-2.08-.54-.14c1.61-.2.81-1.1,2.13-1.42l-1.28-.32c.42-.28.92-.49.67-.94s.6-.81.87-1.24c.11-.17-.11-.38-.05-.57s.17-.59.45-.63c.68-.1,1-.81,2.07-.3a1.26,1.26,0,0,0,.51,0,17.33,17.33,0,0,1,5.16.1,21.91,21.91,0,0,0,3.55.13c1.4,0,2.78-.21,4.18-.25,1.61,0,3.24,0,4.86,0a4,4,0,0,0,.93-.07,8.12,8.12,0,0,1,4.85.29,11.29,11.29,0,0,0,2.25.35l-.08-.19c.26-.24.39-.6.79-.68a4.34,4.34,0,0,1,2.48.19,14.31,14.31,0,0,0,2.46.41l-.25.8c2.56.13,1.52,1,1.42,1.7,1-.08,1.87-.22,2.75-.2a11.51,11.51,0,0,1,4,.43,12.27,12.27,0,0,0,1.36,0,7.38,7.38,0,0,1,1.17.35l-.69.45c.82.32,1.24.74.48,1.29-.17.13,0,.35,0,.53-.1.47-.44,1-2,1.09-.84.06-1.81,1.12-1.52,1.62.43.74-.81,1.42-2.44,1.39-.91,0-1.82,0-2.72,0a1,1,0,0,0-.53.3,5.76,5.76,0,0,1-3.17.75,1.39,1.39,0,0,1-.53-.13c-.65-.47-.64-.48-1.59-.06.51.46,1,.89,1.44,1.33.16.17.12.38.18.57-.62,0-1.23,0-1.85,0-.21,0-.42-.16-.61-.15-2.55.07-5.1.16-7.65.24a1.89,1.89,0,0,0-.31.06s0,.11,0,.11c2,.05,4.07.11,6.1.14.62,0,1.25-.06,1.88-.07,1.24,0,1.59.16,1.43.91.69-.14,1.22-.25,1.77-.35a8.26,8.26,0,0,1,1.14-.15,24.19,24.19,0,0,0,4.95-.74,12.28,12.28,0,0,1,1.87-.13c1-.06,2-.09,2.94-.18,1.54-.15,2.14.12,1.84.81-.21.51-.33,1-.51,1.61C474.65,147.84,474.16,148.11,474.35,148.62Zm-36.8-11.77c-.19-.13-.35-.36-.56-.37-.63,0-1.27,0-1.91,0-.38,0-.76.07-1.14.08a4.36,4.36,0,0,1-.68-.1l-.09.2,4.17.31Zm12.69,9a4.29,4.29,0,0,0-2.95.11l1.21,0,0,0-.9.15a5.85,5.85,0,0,0,1.17.14C449.32,146.18,449.77,146,450.24,145.87Zm-5.23,14a5.73,5.73,0,0,1,1,.6l3-.65a.89.89,0,0,0,.39-.17c.65-.71-.94-1.63-2.6-1.62-1.83,0-3.68-.08-5.5-.19-.76,0-1.17,0-1.34.34a21.13,21.13,0,0,0-1,2.15c0,.12.23.31.48.41,1.21.48,2.62.17,3.94.16,1,0,1.15-.2.66-.59-.15-.12,0-.31,0-.46A4.25,4.25,0,0,1,445,159.85Zm15.79-7.31a15,15,0,0,1-2.33,0,8.08,8.08,0,0,0-2.68.26c-1.31.2-2.68.33-4.16.51a4.09,4.09,0,0,0-.5.63c-.06.12,0,.28.15.39.43.33,1.22.62,1.32,1,.2.7,1.37.48,2.16.6a1.29,1.29,0,0,0,1.32-.37,4.23,4.23,0,0,1,1.21-.93,2.36,2.36,0,0,1,1.13-.11c1.29.5,2.6.11,3.65.13-.24-.37-.48-.69-.67-1S461,152.91,460.8,152.54Zm-30.24,6a2,2,0,0,0-.84.17c-1.26.6-.7,1.61.87,2.06s3.46.24,5.18.35c.46,0,.93,0,1.39,0l.15-.18L433,159.1l-.27.1.27-.44C432.11,158.67,431.34,158.57,430.56,158.52Z"/></svg>